# xmcd
#
# Track frame offsets:
# 150
# 28475
# 52155
# 73220
# 94690
# 111255
# 127390
# 154400
# 180315
# 207377
# 228360
# 251855
# 274015
# 299387
#
# Disc length: 4269 seconds
#
# Revision: 1
# Processed by: cddbd v1.5.1PL0 Copyright (c) Steve Scherf et al.
# Submitted via: CedeCatalogueitor 2.6.0.4 http://personales.ya.com/cdcatalogueitor
#
DISCID=e410ab0e
DTITLE=ROJITAS Y SU ORQUESTA - LA FIESTA DEL CARIBE
DYEAR=1997
DGENRE=SALSA
TTITLE0=La Fiesta Del Caribe
TTITLE1=Ese Beso
TTITLE2=Quisiera Ser El Viento
TTITLE3=Baby I Love Your Way
TTITLE4=Decídete A Probar
TTITLE5=Únete A Mi
TTITLE6=Entre Acordes
TTITLE7=Porque La Salsa Esta Buena
TTITLE8=Roxana Ya No Es La Misma
TTITLE9=Pégate A Mi Cintura
TTITLE10=Me Voy Tras Ella
TTITLE11=You Are Not Alone
TTITLE12=Un Suceso En Tu Vida
TTITLE13=Regálame Tu Encanto
EXTD=
EXTT0=
EXTT1=
EXTT2=
EXTT3=
EXTT4=
EXTT5=
EXTT6=
EXTT7=
EXTT8=
EXTT9=
EXTT10=
EXTT11=
EXTT12=
EXTT13=
PLAYORDER=
